<svg xmlns="http://www.w3.org/2000/svg" viewBox="0 0 220.18 135.62" xmlns:v="https://vecta.io/nano"><path d="M178.53 72v1.49s-13.05-20.6-27.63-21.42-28.73 20.79-29.6 26-2.7 6.12-3.09 11.31a40.26 40.26 0 0 0 .61 10s.33-.19 2.29.71l1.22.57-1.63.74a6.84 6.84 0 0 1 3.92.81 9.68 9.68 0 0 1 2 1.55h-3.08s3.59.33 4.65 1.23l1.06.9-2.63.32a6.23 6.23 0 0 1 3.77 1.31c1.39 1.3.66.41.66.41l-2.53.73s3.43-.25 4.65.82l1.22 1.06-3.59.57s3.1-.33 4.16.73l1.06 1.06h-3.32s3 .25 3.64 1.23l.6 1h-2.69a36 36 0 0 0 19.34 13c12.81 3.37 16 3.13 22.11 2.8s9.23-2 9.23-2l2.2-3.18.65 1.79 2.13-3.43.57 1.8 2-3.43.65 1.39 2.2-4.49.74 1.47 1.79-3.35.74 1.23 1-2.56.49.6 2.44-2.94s1.31-3.59.82-4.9l-.49-1.3s6.88-2.93 10.14-6.63 7.18-12.4 7.18-12.4-1 9.42-3.34 15.48a52.21 52.21 0 0 1-4.9 9.73l-6.45.33s-12.4 19.34-37.46 21.3-41.62-16.4-41.62-16.4L125 119l2.36 1.72s-.41 1.71-4.16-.49-7.94-8.16-11.77-10.2-5.78-3.43-8-3.1-3.44 2.61-8 2-6.32-6.69-11.22-6.52-8.48 1.71-12.73.16S66.19 97.44 64 97s-.4.82-.4.82l-1.8-1.23v1.15l-1.14-1.72v1.39L58.92 96s.48.65-3.27-.24-2.59-2.56-4.14-2.76-2.13 1.58-3.51 1.67a18.9 18.9 0 0 1-4.41-.84L41.79 92s-1.63-.32-2.61-.57a4.38 4.38 0 0 0-2.29.33l-.9 1-3.42-.33s-.66 2.53-1.8 1.88-.9-1.39-1.39-1.47-3-.33-3-.33-1.55-1.14-1.38-2.2a2.19 2.19 0 0 1 .73-1.46 2.1 2.1 0 0 1 1.55-1.48 12.12 12.12 0 0 1 2.59-.37s2.86-.4 3.59-1.71.17-1.31.17-1.31-1.06-2.36.08-2.53 3.29-.32 3.52-.89 3.25-1.31 3.41-1 3.19-1 3.51-1.7 2.94-3.69 4.33-4.1 6.1-2 7.17-2.57 1.56-.2.91.45-5.47 2.29-6.12 3.18-2.53 2.56-2.45 3 1.47.82 2.77 0 3.94-3.2 5.6-3.61 3.87-.24 4.85-.81 2.94-1.8 2.53-.82-2.61 2.53-4.9 3.18-2.22.84-3.19 2.06-4.22 2.48-4.14 3.18-.37 1.64.71 1.07a6.38 6.38 0 0 1 3-.49c.56 0-2.48 2.18-1.77 2.44s2.74-.73 3.72-1.3a3.45 3.45 0 0 1 2-.41s-2.18 1.55-1.58 2.45 2.56.65 3-.16-.16-2.13 1.14-2.78S64 80.55 64.15 80s-.33-2.86.81-5.23 2.58-2.12 2.58-2.12l-.31-7.19s-2.1 1.76-5.12-2.79a96.6 96.6 0 0 0-11.43-13.3l-1.47-1.14s-5.79.48-7.83-2.17-1.8-4.28-1.8-4.28 2.21 3.1 3.59 2.78a3.09 3.09 0 0 0 2-1.47 115.9 115.9 0 0 0-8.65-9.79c-3.34-3.1-4.49-5-6.53-5.06s-2.53 1.22-3.67.4-1.39-3.26-2-3.34-7.62-2-12-1.63S4 23.71.58 25.05s8.73-7.59 23.91-4.24 17 6.28 19.42 6.37 4.57-.74 6.12.24 2.19 2.86 5.62 4.65 8.91 3.92 14.05 6 4.32.82 8.57 6.77 8.89 13.54 8.89 13.54a35 35 0 0 1 2.2 4.95 6.7 6.7 0 0 0 .52 1.79l1.61-3.95s-2.29-1-2-2.79 1.79-5.81.81-10.53-1.71-9.53-1.22-13a24.49 24.49 0 0 1 1.14-5.06s0-3.35 2.53-4.08 3.4-.41 3.4-.41-4.81 2.37-3 3.84 3.09-.17 4.14-1.88 10.93-10.94 12-14.94 1.88-6.93 5-7.5S124 3 125.92 1.7a11.1 11.1 0 0 1 7.27-1.62 13.73 13.73 0 0 1 4 1s-8.94-.24-9.84 2.61-2 2.37 2.53 2.86S143.8 3.1 148.69 5A73.72 73.72 0 0 1 156 8.16a11.1 11.1 0 0 0-5.47-.81c-2.77.4-5.14 3-2.12 3.26s19.42 2.12 26.19 6.44A130.86 130.86 0 0 1 185.82 25s-15.26-5.14-19.25 2 2.44 25.1 5.71 31.89L178.53 72z" fill="#6ec8e1"/></svg>