<svg xmlns="http://www.w3.org/2000/svg" viewBox="0 0 192.35 81.98" xmlns:v="https://vecta.io/nano"><path d="M75.89 57.65s-7.35 3-11.26-2.18S53 46.64 51.27 42.86s-4.92-12.23-7.57-14.62S25.8 8.45 25.55 5s-3.78-5-3.78-5 2.94 3.45 2.69 5.13-4.29 13.36-11.6 12.43-7-1.63-8.57-.67-3.36 0-4 .76 0 .88 1.42.84 3.91.08 5.05.08 17.49 11.05 10.39 27.82c0 0-1 1.56-.83 2s.49-.13.82-.38.9-.82 1.32-.66S38.41 52 41.06 58.51c0 0-.6 1.34-.13 1.56s.51-1 1.26-1.33 13.14-2.67 16.07.57 9.81 2 9.46 4-8.13 4.41-11.09 1-17.18-10.81-27-10.84c0 0 3.65.09 4.28 1.13s13.52 3.85 14 7.38 10.36 10 14.6 9.56a3.41 3.41 0 0 0 1.26 3.11s-.83.5-1.21.19a10.72 10.72 0 0 0-1.13-.76s.08 0 .25-.47-.58.09-.63.19a3.22 3.22 0 0 0-.32 1c0 .29-.64 1.44.38 1.67s.35 1 .35 1a3.15 3.15 0 0 0 .53.76 2.22 2.22 0 0 0 1.08.47c.39 0 .6-.14 1.38-.75a2.53 2.53 0 0 1 2.4-.35c.74.22-.05 1.55-.68 1.87s-1.58-.21-1.69-.21-.21-.47-.28-.47-.5.75-.26.78.55 1 1 1a2.57 2.57 0 0 1 1.57.71c.27.41-.87.87.64.57a5 5 0 0 0 2.64-1.31 8 8 0 0 1 2.18-.9c.63-.2 6.3.79 7.39.07s6.47-5 6.89-6.89 2.48-4 4-3.69a29.55 29.55 0 0 0 4.72.92c.38-.14 1 .41 1.07-.47s.76-1.42 0-2.15 9.68-2.42 10.68-4.63 18.83-2.42 23.37-.82 11.64-5.21 15.38 5.13c0 0 .84 2.44 1.34 2.44 0 0-.42-1.71 0-1.86s4-4.07 3.66-5.2 1-2 2.9-1.85 9.58 6.05 14.87 5 14.25 4.62 15.21 7.73a3 3 0 0 0 0-2.44c-.58-1.21-2.07-.92-2.19-1.59s-.68 0 0-2.27 8.62-2.1 10.43 1.26c0 0 .08 1.39.5 1.43s-.21-2.31 0-2.86-4.58-7.06-9.32-7.23-19.1-1.13-24.21-5.42-4.47 1.77-10.71 2-18.66-5.93-23-7.56-8.44 6.68-19.28 6.42-8.79 1.94-11.52 1.27-2.88-1.59-3.15-2.17-1.3-.59-1.85.84-.88 2.56-1.34 1.76-1-7.44-1.94-8.32-2.04 6.18-2.16 6.51-1.6.25-1.77-.33-2.69-4-2.77-2.53 1 2.61 1.09 3.45-1.26 2.23-1.43 1.31-1.09-2.57-1.09-1.6a11.48 11.48 0 0 1-.08 2.27c-.13.29-1.77.08-1.77.08z" fill="#6ec8e1"/></svg>