<svg xmlns="http://www.w3.org/2000/svg" viewBox="0 0 286.98 274.12" xmlns:v="https://vecta.io/nano"><path d="M56.06 88.74l1.34-1.34s1.39-8.32-1.34-11.93c0 0 6 3.4 5.29 11.93 0 0 .63 1.6 2.61-.08s6.43-3.53 7.39-3.53-.46-5.59-2.44-6.48c0 0 3.43.09 6 7 0 0 12.86.25 32.91 22.44 0 0 6.68.44 8 1.58s6.21-.41 6.62-.95 22.37-7.56 26.09-7.18 10.29-20.2 10.22-24.73-2.71-6.64-5.67-6 1.58-3.72 3.4-4.29 3.66-15.76 4.29-21.56 12.73-26 17.65-37.81 1.7-2.34 2.9 0 21.43 33.91 79.54 23.7c0 0 11.18-4.84 12.69-4.12s16.73-1.57 12.78-.25c-3.47 1.15-8.46 2.77-11.52 4-3.42 1.41-4.41 3.36-8.15 3.36s-3.28.17-3.19 1.68S234.43 54 261 70.42c0 0 6.53.08 7.41.42s6-.44 7.63 2.65c0 0-5.48-2.46-6.05-.31s-9.11-.57-9.77.56-44.99 6.94-41.22 40.47c0 0 2.89 1.81 3 2.35s2.95 3.37 2.46 4.58c0 0-2.56-3.21-3.34-2.75s-6.07-2.54-7.71-2.75-51.2-13.28-71.44 31.18c0 0-12.12 13-24.66 9.62 0 0 2 5.92-11.56 21.81 0 0-6.47 6-5.88 30.08s-23.25 40.3-16.77 65.24c0 0-3.86 5-3-15.15S91.63 231.63 90.3 219s-5.54-28.55-.88-39.07c0 0-2.84-2-3.28-7.57 0 0-2.33 1-2.39.51s.06.44.06.44 3.66 4.79-5.86 13.67c0 0-4.57 4.32-.69 7.06S67 195 63.89 206.17c0 0 .86 1.6-.52 1.83s-.82 2.81 0 3.27c0 0-2.56-.86-2.69-2.81 0 0-.34-1.07-1-.67s.09 2.77 1 4c0 0-2.64-.09-3.15-3.36 0 0-.92.21-.88-1.14 0 0-1.2.38-1.39.25l.19.13s-.9 1.51.15 4.24c0 0-2.73-.44-2.19-5a3 3 0 0 1-.07-2.73s-2.1-.3-2.07-1c0 0-3.56 1.48-3.66 2.64 0 0 1.64-4.5 3.53-4.16 0 0 3.16-2.23 6.31-1.76s9.42-3.69 10.08-6.56 1.83-5.64 1.07-6.49-5.76 2.14-6.24 4.54-3.18 3.94-3.27 3.34-.67 2.84-.07 3.53a4.33 4.33 0 0 1-1.57-4.54l-.07-.88a3.71 3.71 0 0 0-.82 3.59 7.74 7.74 0 0 1-.31-6.43s-1.77.38-1.95-.12c0 0-2.18 1.38-1.9 3.59 0 0-1.1-3.75.64-4.92 0 0 .31-1.57 1.13-1.82 0 0-.35-1.08-.76-1.08 0 0-2.3-.37-3.4 2.59a3 3 0 0 1 1.67-4s.89-4.33 7-3.78 14.62-2.74 14.87-6.73.38-5.12 2.1-7.14-.17-15.8 3.2-17.57 8.15-5.16 12.6-2.43c0 0 .59-3.62-2.6-5s-1.08-7-5.93-6.43-9.33 1.13-10.21 4.66a9 9 0 0 0-1.22 2.41 1 1 0 0 0 .09.87s-1-2.77 0-3.7c0 0-.8-3.32-1.56-4.2S63.24 124.38 54 121.52s-23.62.92-23.62.92-.84 1.52-1.55 1.24c0 0-1.59.81-1.95 1.89a1.6 1.6 0 0 0-.05.21c-.2 1.19.25-2.63 1.07-2.92s1.93-2 2.31-2.66 3.15-9.31-2.77-13.64-20.13-3.87-19.2-6.56c0 0-4.88.58-5.38.25S0 101.1 0 101.43a4 4 0 0 1 3.78-2.6 6.13 6.13 0 0 0 5.72-3.78c.92-1.85 19-6.31 12.86-19.25a3.42 3.42 0 0 0-2.18-1.27c-1.43-.2-.88-1-1.35-1.39s-2-.25-2.08-.69S39.69 80.05 43 80.8s8.53 7.25 13.06 7.94z" fill="#6ec8e1"/></svg>