<svg xmlns="http://www.w3.org/2000/svg" viewBox="0 0 307.03 276.95" xmlns:v="https://vecta.io/nano"><path d="M136.13,63c-.15-.24-2.21-.51-2.35-.8s-.4-1.08-1.29-1-1.51.46-1.68,0-1.11.33-1.09.5-1.53-3.68-.33-4.5,1.73.31,2.16.34a10.28,10.28,0,0,0,3.81-.64c1.27-.58.23-2.65,1.42-3.59s1.93-4.89,5.32-2.06c0,0-1.88-.8-2,0s-1.34.93-1.46,2,.14,1.15,1,1.15,3.89-.67,4.15-.12S146,52.45,147.39,53s2.15,2.61,3.62,2.71,5.55.56,5.63-1.69-.73-3.44-2.12-2.2a2.52,2.52,0,0,1,2.26-1.6c1.68,0,2.58,3.78,1.07,5.21s-3.27,3.87-4.94,3.88-3.16-.62-3.19-.88c0,0,5.88,5.46,8,5.89s5.44,5.18,6,10.24,3.92,3.54,7.12,4.34S198.91,70,200.33,67.31,207.09,63.73,208,60s12.8-21.05,14.53-30.88,9.25-13.27,10.43-12.81c0,0-4.6,7.32-4,10,0,0,2.08-5.67,4-5.49,0,0-1.24,3.26,0,3.89,0,0,51-26,74.12-24.6,0,0-30,15.41-28.55,52.47,0,0-1.49-2.9-1.94-.16a30.43,30.43,0,0,0-.45,4.43s-.59,3.35.9,4.57-1,1-2.24,1.07-6.8-.23-6.88,2.29-3.06,5.64-3.73,5-2.62-3.89-3.59-5.18-2.31-5.11-3.58-7.48-6.43-3.66-6.43-3.66a23.64,23.64,0,0,0,3,4.27,36.34,36.34,0,0,1,4.18,5.65c.75,1.29,1.35,4.65,2.1,6.71s.52,2.82,1.79,5,3.44,3.75,2.69,3.82-.38.45-2.39-.92-4.34-2.75-4.34-2.75-1.86-1.75-1.79.31a18.94,18.94,0,0,0,1.5,5.79c.29.46,1.12,2.14-.6,1.22s-5.08-3.35-5.08-3.35-.6,1.22-1.35,2.59-7.17,5.26-8.22,6.1-6.57,5.79-6.57,9.91-3.14-1.22-3.14-1.22-.3,3.89-.3,4.27-3.85-.53-5.83,0-2-1.75-1.94-2.36a26,26,0,0,0-.82-3.43,8.18,8.18,0,0,0-.3,2.74c.15.69.6,3.36.6,3.59s-.45.53-.45.53-1.94-1.52-2.09-1.75-1.2-.77-.6-.38.11,1.33.15,1.67a.81.81,0,0,1-.37.92,10.38,10.38,0,0,1-2.38.46s-1.1-.39-1.21.91-.45,3.2-.9,3.66-1.49.08-2.09,1a16.67,16.67,0,0,0-1.87,3.13c-.56,1.37-.86,1.18-1.79,2.36s-2.73,2.63-2.69,1.6-.34-2.51-.3-3.5-.37-4.35-.37-4.35a4.22,4.22,0,0,0-1.12,2.44c0,1.26-.38,1.49-.38,2.06s.15.42-.07,1.07a4.3,4.3,0,0,1-1.12,1.37c-.3.34-.9.59-1.2,1.27a14.43,14.43,0,0,0-.6,1.93s-10.66,6-10.83,6.25-2.63-1.25-2.69-1.6-.78-2.28-1-3a19.61,19.61,0,0,1-.78-4.23c0-.92-.51-3.72-1-2.52s-.84,2.69-1.35,3.78a2.46,2.46,0,0,1-1.79,1.25s-.95-.8-.9-1.37-.45-2.63-.45-3.09-1-1.54-1.23-.57-.73.92-.67,2.4.28,1.66.34,3.21a6.86,6.86,0,0,1-.9,3.54c-.45.86-.79.92-1,1.49a13.94,13.94,0,0,0,2.69,8.69c2.58,3.26,8.37,15.48,2,26.31s-5.38,7.93-5.38,14.64.52,14.87-3.59,19.07a2.78,2.78,0,0,0-.89,1.25c-.1.59-.19-.59-.19-.87v-.54s0-.26-.45.8-.95,1.49-1.12,1.26-.36-.68-.11-.95a1.56,1.56,0,0,0,.15-1.3c-.13-.4-.75.73-1.16,1.22s-1.31,1-.94.42,1.13-2.1.68-3.2-.69-2.71-1-2.52-1.24,3.83-1.5,3.74.24-4.48.75-5.83.17-3.57-1.38-1.07-.23,3.72-.23,5.18-.43,9.54-1.55,10.51a28.11,28.11,0,0,0-.5-5c-.42-1.25-1.29,8.21-2.58,8.87,0,0,0-6.81-.67-7.66,0,0-.54,7.17-1,7.2s-.75-.11-.67-1.37-.89-3.66-.89-4.69a32.15,32.15,0,0,1,.44-3.55,10.28,10.28,0,0,0-1,4.12s-1.6-.46-1.4-1.83c0,0-14.89-.95-31.32,32.14s1.79,46.37,1.79,46.37,3.64,3.39-1.23,1.79-32.54-28.48.33-69.2,23.61-50.79,24.21-58c0,0,0-6.25-3.59-8.84s.17-.63.17-2.05a54.22,54.22,0,0,0-.73-6.13c-.11-.46-1.26-2.38-1.4-2a9.42,9.42,0,0,0-.17,2.58,3.8,3.8,0,0,1,.06,2.51,16.14,16.14,0,0,1-2,3c-.17.39-.92,1.05-.89,2s.92,1.4.61,2.12a1.74,1.74,0,0,1-.78,1c-.2.11-1.32-.6-1.35-1.32s-.5-2.85-.5-3.76-.73-5.85-.73-5.85-.64-3.23-.95-1.08-.56,4.11-.56,4.11-1.1.52-1.24-.11a22.82,22.82,0,0,0-1.9-2.86c-.08-.23-3.11-1.77-3.19-2s-1.18-2-1.18-2-.65-.6-.62,1,0,2.34,0,3.31-4.48-1.83-4.48-1.83a4.21,4.21,0,0,0-2.69-1.25c-1.82-.2-7-2.38-7.34-2.92a10.84,10.84,0,0,1-1.35-2.86c-.11-.86-.53-3.17-.78-2.4s-.65,4.2-.79,5-.7,1.78-1.28,1.89-1.85-.34-2.36,1.32-2.21,4.26-2.63,5.83-1,3.14-1,3.32-.26,1-.45-.62-.84-3.13-.9-4.53-1.15-3.89-1.34-5.26-1.57-3.72-1.57-4.35a4.09,4.09,0,0,1,.73-3.09c1-1.57,1.17-5.6,1.17-5.6a2,2,0,0,0-2.52,1.26c-.56,1.8-1.37,1.77-1.34,3s1.34,1.63,1.17,2.91-.81,2.78-.84,1.89-.9-3.72-.9-4-.92-2-1.17-1a11.89,11.89,0,0,1-.67,2c-.28.74-1.63,1.26-1.63,1.26S93,120.1,93,119.13a13.51,13.51,0,0,0-1.63-4.58,25.8,25.8,0,0,1-2.58-3.66,9.68,9.68,0,0,1-.5-2.86,10.83,10.83,0,0,0-.78-3l-1,.23a28.28,28.28,0,0,1-.67-4.63c.11-1,0-4.35,0-4.35A2.94,2.94,0,0,0,85.3,98a13.78,13.78,0,0,1-.72,3,22.56,22.56,0,0,0-.51,2.69,16.51,16.51,0,0,1-2.18,4.29,5,5,0,0,1-2.69,1.43,34.37,34.37,0,0,1,0-3.61s.22-1.37-.84.23a5.31,5.31,0,0,1-1.85,2c-.23.17-1,.4-1.12.17a7,7,0,0,1-.84-1.55c0-.31-1-1.48-1-1.48h-1.8s-2-2.75-2.07-1.15-.17,1-.78,2.35-1.52,1.6-1.69,2.06-.56-.06-1,.68-1.29.43-2.86,2.81-2.1.85-2,2.86.51,3,.14,2-.92-2.69-1.26-4-2.18-3.52-2.41-5.32a12.91,12.91,0,0,1,.39-5.37,12.83,12.83,0,0,0,.56-3.55s-2.18,1.2-2.57,2.63-.54,1.83-.62,2.12-1,.31-.78-.52,0-.8,0-1.77-.3-2.17-1.08-2a4,4,0,0,1-2,.29c-.58-.14-.64-1.46-2.41-.46s-3.53-.34-3.75,1.43.06-6.26-.28-7.78S44,90,43.5,90a8.24,8.24,0,0,0-2,.74l-.89.23s-1-1.29-.51-1.94,0-2.81-.12-3.38-.47-5.34,0-5.64,1.56-3.32,2.27-4.58,1.12-5.26,1.12-5.26-.78-.84-2.09.92a29.71,29.71,0,0,0-2.54,3.58A6.71,6.71,0,0,1,35,77.22c-.63,0-1.16-1.37-.6-2s1.42-3.81,1.42-3.81L32.07,72a11.06,11.06,0,0,0-1.35-.07,5.11,5.11,0,0,1-2.09-.54c-.52-.34-3.92-1.79-4.26-2s-2.5-2.17-2.16-2.75,1-2.05,1-2.05,1.34-2-.08-1A15.38,15.38,0,0,1,20,65.18l-1.72.07s-2.13-1-2.09-1.52-.41-1.64-.37-2a3.19,3.19,0,0,0-1.95-1.67,11.66,11.66,0,0,1-3-.39c-1-.3-3.73-.76-4-.91S5.32,57.44,4.12,57.4s-3.4-.73-4.1-.08S23.83,46.15,54.6,54.38,94.33,64.57,98.08,71.66c0,0,2-4,0-7.09A15.23,15.23,0,0,1,105.25,76s2-.8,1.91,1.3.45,3.74,1.49,4.65,1,2,5.38,2.29,10.28,4.12,19,2,15.73-3.16,18.08-2.29,6.13,2,6.35-.83-1.62-7.94-3.93-9.16-7.16-1.25-8.39-2.44-3.44-3.12-3.44-1.44.69,2.45.33,2.82-2.09-1.07-2.09-1.07a48.45,48.45,0,0,0-2.16,5.45,35.77,35.77,0,0,0-1.57-4.57c-.58-1-1.65-1.85-.94-2.56s.25-3.45.11-3.66a1.4,1.4,0,0,1,.27-1.18C135.89,65,136.43,63.46,136.13,63Z" fill="#6ec8e1"/></svg>