<svg width="81" height="76" viewBox="0 0 81 76" fill="none" xmlns="http://www.w3.org/2000/svg">
<path d="M75.6772 34.0997C73.5517 15.5585 57.7061 0.940186 38.293 0.940186C17.568 0.940186 0.636719 17.7091 0.636719 38.4402C0.636719 59.1652 17.5619 75.9402 38.293 75.9402C48.3111 75.9402 57.7297 72.04 64.8089 64.9561L61.4947 61.6419C55.2989 67.84 47.0592 71.2527 38.293 71.2527C20.1594 71.2527 5.32422 56.5805 5.32422 38.4402C5.32422 20.3066 20.1527 5.62769 38.293 5.62769C55.1156 5.62769 68.9402 18.1788 70.9694 34.2753C68.3967 35.3211 66.5742 37.8399 66.5742 40.7839C66.5742 41.463 66.5742 53.3397 66.5742 52.5027H71.2617V47.8152H75.9492V52.5027H80.6367C80.6367 51.8236 80.6367 39.9469 80.6367 40.7839C80.6367 37.6325 78.5394 34.9903 75.6772 34.0997Z" fill="#48CAE4"/>
<path d="M15.0928 36.0964H28.9639C29.3432 25.5338 32.297 15.0027 38.2934 15.0027C26.1732 15.0027 16.2884 24.2861 15.0928 36.0964Z" fill="#48CAE4"/>
<path d="M38.2928 19.6902C37.1702 19.6902 34.1014 25.365 33.6875 36.0964H42.8983C42.4842 25.365 39.4155 19.6902 38.2928 19.6902Z" fill="#48CAE4"/>
<path d="M38.293 15.0027C44.2894 15.0027 47.2431 25.5338 47.6225 36.0964H61.4936C60.298 24.2861 50.4131 15.0027 38.293 15.0027Z" fill="#48CAE4"/>
<path d="M15.0928 40.7839C16.2884 52.5942 26.1732 61.8777 38.2934 61.8777C32.297 61.8777 29.3432 51.3466 28.9639 40.7839H15.0928Z" fill="#48CAE4"/>
<path d="M61.4936 40.7839H47.6225C47.2431 51.3466 44.2894 61.8777 38.293 61.8777C50.4131 61.8777 60.298 52.5942 61.4936 40.7839Z" fill="#48CAE4"/>
<path d="M38.293 57.1902C39.4156 57.1902 42.4844 51.5153 42.8983 40.7839H33.6875C34.1016 51.5153 37.1703 57.1902 38.293 57.1902Z" fill="#48CAE4"/>
</svg>
