<svg id="Layer_1" data-name="Layer 1" xmlns="http://www.w3.org/2000/svg" viewBox="0 0 1080 286"><defs><style>.cls-1{fill:#2880ba;}.cls-2{fill:#15a95b;}</style></defs><title>logo getdone file sgv web</title><path class="cls-1" d="M694.06,57.92a10.91,10.91,0,0,0-7.86-3.13,10.77,10.77,0,0,0-11,11v36.91a49.09,49.09,0,0,0-75.92,41.09,49,49,0,1,0,98.07,0v-78A10.62,10.62,0,0,0,694.06,57.92Zm-21,96.27a27.89,27.89,0,0,1-5.77,8.56,26.76,26.76,0,0,1-38.09.05,27.69,27.69,0,0,1-5.72-8.56,26.8,26.8,0,0,1,0-20.8,28,28,0,0,1,5.72-8.57,27.31,27.31,0,0,1,8.52-5.78,27,27,0,0,1,21,0,27.33,27.33,0,0,1,8.56,5.84,27.77,27.77,0,0,1,5.77,8.56,26.67,26.67,0,0,1,0,20.7Z"/><path class="cls-1" d="M799.33,125a48.69,48.69,0,0,0-10.74-15.88,49,49,0,0,0-83.72,34.68,49,49,0,1,0,98.09,0A50.66,50.66,0,0,0,799.33,125ZM778.7,154.19a27.86,27.86,0,0,1-5.76,8.56,26.77,26.77,0,0,1-38.1.05,27.72,27.72,0,0,1-5.71-8.56,26.8,26.8,0,0,1,0-20.8,27.88,27.88,0,0,1,5.71-8.57,27.43,27.43,0,0,1,8.52-5.78A26.29,26.29,0,0,1,753.92,117a26,26,0,0,1,10.46,2.13,27.38,27.38,0,0,1,8.56,5.84,27.74,27.74,0,0,1,5.76,8.56,26.56,26.56,0,0,1,0,20.7Z"/><path class="cls-1" d="M898.48,122.76a46.65,46.65,0,0,0-10-14.58,48,48,0,0,0-14.6-9.76,43.67,43.67,0,0,0-17.57-3.63,44.32,44.32,0,0,0-24.49,6.93,11.38,11.38,0,0,0-2.44-3.63,11,11,0,0,0-15.72,0,10.8,10.8,0,0,0-3.23,7.82v75.86a11.09,11.09,0,1,0,22.17,0v-41.1a22.93,22.93,0,0,1,1.84-9.14,24.11,24.11,0,0,1,12.69-12.72,23.5,23.5,0,0,1,18.31,0,24.23,24.23,0,0,1,12.7,12.7,22.54,22.54,0,0,1,1.88,9.13v41.1a11.06,11.06,0,0,0,11.13,11.12,11.06,11.06,0,0,0,11-11.12v-41.1A44.31,44.31,0,0,0,898.48,122.76Z"/><path class="cls-1" d="M1004,125a49.12,49.12,0,1,0-80.12,53.54,49,49,0,0,0,66.88,2.31,11,11,0,0,0,3.17-7.9,10.77,10.77,0,0,0-11.09-11,11.5,11.5,0,0,0-7.23,2.73,25.51,25.51,0,0,1-7.78,4.58,28.13,28.13,0,0,1-17.81.15,27.79,27.79,0,0,1-7.52-3.88,27.13,27.13,0,0,1-5.94-6,25.91,25.91,0,0,1-2.67-4.63h62.59a11,11,0,0,0,7.86-3.12,10.56,10.56,0,0,0,3.26-7.92A49.13,49.13,0,0,0,1004,125Zm-67.52,3.21a26.47,26.47,0,0,1,6-6,28.7,28.7,0,0,1,7.6-3.88,27,27,0,0,1,17,0,27.47,27.47,0,0,1,13.52,9.87,25.49,25.49,0,0,1,2.69,4.61H933.81A24,24,0,0,1,936.44,128.19Z"/><path class="cls-2" d="M415.48,112.4a46.68,46.68,0,0,0-79.68,32.92,46.52,46.52,0,0,0,46.68,46.5q21,0,36.25-16.84v17.51q0,8.76-7.34,17.58a38.39,38.39,0,0,1-28.17,11.67A39.79,39.79,0,0,1,368,218.87a39,39,0,0,1-12.87-8.71,42.43,42.43,0,0,1-6.92-9.09,5.06,5.06,0,0,0-1.16-1.58,5.15,5.15,0,0,0-3.76-1.59,5.14,5.14,0,0,0-5.17,5.17,6,6,0,0,0,.93,3.09,46,46,0,0,0,8.75,11.25,50.22,50.22,0,0,0,70.92,0,34.32,34.32,0,0,0,10.41-24.92V145.32A44.67,44.67,0,0,0,415.48,112.4Zm-7.34,58.51a36.34,36.34,0,0,1-62-25.59,36.3,36.3,0,1,1,62,25.59Z"/><path class="cls-2" d="M518.74,112.4a46.67,46.67,0,0,0-79.67,33,46.68,46.68,0,0,0,77.09,35.42,5,5,0,0,0,1.34-3.58,5.17,5.17,0,0,0-1.5-3.71,5.14,5.14,0,0,0-6.92-.38,34.73,34.73,0,0,1-23.34,8.59,35,35,0,0,1-25.67-10.67q-8-8-10.5-20.5h77.68a5.14,5.14,0,0,0,5.17-5.17A44.94,44.94,0,0,0,518.74,112.4Zm-33-3.34a35,35,0,0,1,25.67,10.67,38.17,38.17,0,0,1,10.42,20.51H449.57q2.49-12.53,10.5-20.51A35,35,0,0,1,485.74,109.06Z"/><path class="cls-2" d="M577,183.36a5.16,5.16,0,0,0-3.71-1.49q-22.42,0-22.42-22.51V109.19h15.59a5.16,5.16,0,0,0,3.71-1.5,5.17,5.17,0,0,0,0-7.34,5.16,5.16,0,0,0-3.71-1.5H550.88V63.93a5,5,0,0,0-1.54-3.67,5.17,5.17,0,0,0-3.71-1.49,5.11,5.11,0,0,0-5.17,5.16v95.43q0,32.83,32.84,32.84a5.13,5.13,0,0,0,3.71-1.5,5.14,5.14,0,0,0,0-7.34Z"/><path class="cls-2" d="M213.13,148.06l-.07,26L212.8,253l-15.44,8.82c-.27.16-.55.31-.83.46a29.52,29.52,0,0,1-13.33,3.41h-1.13A28.76,28.76,0,0,1,170.51,263c-.32-.13-.65-.28-1-.44l-3.09-1.8-65-37.74L87,214.6c-.51-.31-1-.65-1.52-1a29.5,29.5,0,0,1-12.67-23h0a2.62,2.62,0,0,1,0-.28s-.4-91.63-.4-95.22V95c.4-9.63,6.07-18.1,13.54-23.2l4.09-2.37h.05l2.14-1.23,15.61-9L153.32,33v0l-.09,34.82L128.61,82,107.06,94.39A8.9,8.9,0,0,0,103.2,101l-.08,24.71L103,159.78,103,184.57a9,9,0,0,0,3.63,6.5l.4.22c.19.12.39.24.59.34l20.71,11.87,29.39,16.84,25.13,14.4v-.12l.11-28.1.17-40.68a8.62,8.62,0,0,0-4.07-7.29l-21.37-12.69a9,9,0,0,1-3.48-3.42l.11-.06,15.28-8.76,13.42-7.7,1.2-.7a9,9,0,0,0,2.87,3.05l.58.34a.29.29,0,0,0,.13,0l21.46,12.44A7.51,7.51,0,0,1,213.13,148.06Z"/><path class="cls-1" d="M293.47,95.57a1.09,1.09,0,0,0,0-.19c0-14.55-7.44-19.59-13.94-23.8l0,0-.57-.32-.84-.48-8.43-4.9c-1.28-.74-2.65-1.53-4.11-2.39-1.11-.64-2.24-1.31-3.43-2l-3.51-2L254,56.79c-1.58-.93-3.18-1.83-4.79-2.79l-2.13-1.24-47.66-27.6-2.66-1.55A28.89,28.89,0,0,0,184,20.37h-1.41a29.29,29.29,0,0,0-11.8,2.77l0,0c-.49.22-1,.47-1.41.72a.51.51,0,0,0-.15.07l-.88.5-15,8.6-.08,34.83L153,138a9,9,0,0,0,1.15,4.4l15.4-8.83L183,125.92l1.2-.7a.06.06,0,0,1,0,0A8.91,8.91,0,0,1,183,121v-.37l.15-38.41,0-2.76.12-28.84h0l.09,0L208.59,65.3,238,82.36l21.24,12.32a9,9,0,0,1,4,7.45l-.05,24.13L263.07,160v1.06L263,184.3a8.82,8.82,0,0,1-4.09,7.43L239,203.15l-1.12.64-25,14.32-.08,34.79.1-.07,26.27-15.08s40-22.93,40.36-23.18a26.57,26.57,0,0,0,13.87-23.46C293.46,191.06,293.47,95.57,293.47,95.57Z"/></svg>