<svg width="79" height="78" viewBox="0 0 79 78" fill="none" xmlns="http://www.w3.org/2000/svg">
<path d="M73.5515 20.3281C70.1383 14.4248 65.2348 9.52129 59.3315 6.10812C53.386 2.62728 46.6108 0.816869 39.7215 0.868124C32.8291 0.817049 26.0507 2.62739 20.1015 6.10812C14.1999 9.52353 9.2969 14.4265 5.8815 20.3281C2.40076 26.2773 0.59042 33.0557 0.641496 39.9481C0.554718 48.2214 3.17049 56.2969 8.0915 62.9481C12.8461 69.577 19.5942 74.5137 27.3515 77.0381C27.6899 77.1376 28.0469 77.1569 28.394 77.0944C28.7412 77.0319 29.069 76.8894 29.3515 76.6781C29.5637 76.4866 29.7325 76.2519 29.8463 75.9897C29.9602 75.7275 30.0165 75.4439 30.0115 75.1581C30.0115 75.0581 30.0115 74.1581 30.0115 72.4081C30.0115 70.6581 30.0115 69.1681 30.0115 67.8781L28.8415 68.0781C27.9064 68.231 26.9585 68.2913 26.0115 68.2581C24.8226 68.2286 23.6383 68.0981 22.4715 67.8681C21.2287 67.6386 20.0592 67.1139 19.0615 66.3381C18.0146 65.5462 17.2334 64.4545 16.8215 63.2081L16.3115 62.0381C15.884 61.1137 15.3468 60.2441 14.7115 59.4481C14.1405 58.6341 13.3826 57.9689 12.5015 57.5081L12.1415 57.2581C11.8981 57.0817 11.6765 56.8769 11.4815 56.6481C11.2925 56.4366 11.1373 56.1971 11.0215 55.9381C10.9957 55.8834 10.9818 55.8239 10.9806 55.7634C10.9795 55.703 10.991 55.6429 11.0146 55.5873C11.0382 55.5316 11.0733 55.4815 11.1176 55.4403C11.1618 55.3991 11.2143 55.3677 11.2715 55.3481C11.7415 55.1621 12.2472 55.0835 12.7515 55.1181L13.7515 55.2681C14.6586 55.5184 15.5125 55.9318 16.2715 56.4881C17.28 57.1756 18.1208 58.0813 18.7315 59.1381C19.4044 60.411 20.3753 61.5021 21.5615 62.3181C22.5383 63.0047 23.6978 63.3842 24.8915 63.4081C25.8641 63.4232 26.8358 63.3395 27.7915 63.1581C28.5825 62.9972 29.3513 62.7421 30.0815 62.3981C30.2761 60.4117 31.1858 58.5637 32.6415 57.1981C30.8842 57.0226 29.1426 56.7151 27.4315 56.2781C25.7575 55.8143 24.1483 55.1424 22.6415 54.2781C21.0499 53.426 19.6428 52.267 18.5015 50.8681C17.2875 49.2658 16.382 47.4516 15.8315 45.5181C15.1098 43.0409 14.7726 40.4676 14.8315 37.8881C14.7423 34.006 16.1784 30.2436 18.8315 27.4081C17.5848 24.3148 17.7048 20.8548 19.1915 17.0281C20.1715 16.7215 21.6315 16.9515 23.5715 17.7181C25.0353 18.26 26.4561 18.9118 27.8215 19.6681C28.7148 20.2215 29.4348 20.6815 29.9815 21.0481C36.376 19.2883 43.127 19.2883 49.5215 21.0481L51.4215 19.8681C52.9056 18.9723 54.4729 18.2222 56.1015 17.6281C57.379 17.0038 58.8237 16.8075 60.2215 17.0681C61.7548 20.9015 61.8915 24.3615 60.6315 27.4481C63.2736 30.267 64.7122 34.0052 64.6415 37.8681C64.6937 40.4571 64.3566 43.0393 63.6415 45.5281C63.0789 47.4654 62.1524 49.2777 60.9115 50.8681C59.7646 52.2456 58.3665 53.3926 56.7915 54.2481C55.2873 55.1106 53.6817 55.7824 52.0115 56.2481C50.2968 56.6841 48.5519 56.9916 46.7915 57.1681C48.5515 58.6881 49.4415 61.0981 49.4415 64.3881V75.1581C49.4327 75.4417 49.4843 75.7239 49.5929 75.9859C49.7016 76.248 49.8647 76.4839 50.0715 76.6781C50.3517 76.8938 50.6796 77.039 51.0277 77.1016C51.3757 77.1643 51.7336 77.1425 52.0715 77.0381C59.8366 74.5076 66.5889 69.5599 71.3415 62.9181C76.2661 56.2682 78.8854 48.1925 78.8015 39.9181C78.8436 33.035 77.0301 26.2677 73.5515 20.3281Z" fill="#48CAE4"/>
</svg>
