<svg width="26" height="26" viewBox="0 0 26 26" fill="none" xmlns="http://www.w3.org/2000/svg">
<path d="M12.9231 0.0120239C10.4502 0.0120239 8.03287 0.745324 5.97672 2.11919C3.92058 3.49306 2.31802 5.4458 1.37168 7.73046C0.425339 10.0151 0.177734 12.5291 0.660173 14.9545C1.14261 17.3799 2.33343 19.6077 4.08203 21.3563C5.83064 23.1049 8.05849 24.2958 10.4839 24.7782C12.9093 25.2606 15.4232 25.013 17.7079 24.0667C19.9926 23.1203 21.9453 21.5178 23.3192 19.4616C24.693 17.4055 25.4263 14.9881 25.4263 12.5152C25.4263 9.19917 24.109 6.01893 21.7642 3.67413C19.4194 1.32932 16.2392 0.0120239 12.9231 0.0120239V0.0120239ZM19.6172 6.45598C18.5239 6.45598 18.2899 6.94329 18.2899 8.20643V15.6603C18.2899 16.9202 18.6714 17.4075 19.6172 17.4075V17.6448H14.3049V17.4043C15.2891 17.4043 15.6322 16.917 15.6322 15.6474V6.92085L15.6033 7.0042L11.7498 17.6448H11.4965L7.82247 8.09102V15.6571C7.82247 16.9394 8.46366 17.4107 9.36453 17.4107V17.6448H6.04316V17.4075C6.96327 17.4075 7.58202 16.917 7.58202 15.6506V8.08781C7.58202 7.08756 7.35119 6.45598 6.25476 6.45598V6.21874H9.95442V6.24119L12.875 13.8361L11.5253 17.5678L11.4965 17.648L11.5253 17.5678L15.35 7.0042L15.6322 6.21874H19.6172V6.45598Z" fill="white"/>
</svg>
