<svg width="81" height="81" viewBox="0 0 81 81" fill="none" xmlns="http://www.w3.org/2000/svg">
<path d="M73.5138 35.2528C71.0763 35.2528 68.9513 36.9559 68.4513 39.3466H61.5137C61.2637 34.5028 59.3419 29.8934 56.0606 26.3153L60.9669 21.4091C63.3419 22.9716 66.5294 22.3309 68.0919 19.9559C69.6544 17.5809 69.0138 14.3934 66.6388 12.8309C64.2638 11.2684 61.0763 11.9091 59.5138 14.2841C58.4044 15.9716 58.3731 18.1434 59.4356 19.8466L54.4825 24.7997C50.8731 21.5653 46.2637 19.6903 41.4356 19.4716V12.5341C44.2481 12.0184 46.1075 9.31532 45.5762 6.50282C45.045 3.69032 42.3888 1.84657 39.5919 2.37782C36.795 2.90907 34.92 5.59657 35.4513 8.40907C35.8263 10.4091 37.3263 12.0028 39.295 12.4872V19.5028C34.5138 19.7841 29.9669 21.7059 26.42 24.9403L21.5138 20.0341C23.1075 17.6747 22.4981 14.4559 20.1231 12.8622C17.7481 11.2684 14.545 11.8778 12.9513 14.2528C11.3575 16.6278 11.9669 19.8309 14.3419 21.4247C16.0294 22.5653 18.2169 22.6122 19.9356 21.5497L24.8888 26.4872C21.6544 30.0809 19.7638 34.6903 19.5606 39.5341H12.6388C12.17 37.0809 10.045 35.3153 7.545 35.2841C4.68563 35.2684 2.3575 37.5653 2.34188 40.4247C2.32625 43.2841 4.62313 45.6122 7.4825 45.6278C7.49813 45.6278 7.51375 45.6278 7.545 45.6278C9.92 45.6591 12.0138 44.0341 12.5606 41.7216H19.545C19.8106 46.5028 21.7169 51.0497 24.9513 54.5966L20.0763 59.4872C17.6856 57.8778 14.4513 58.5184 12.8419 60.9091C11.2325 63.2997 11.8731 66.5341 14.2638 68.1434C16.6544 69.7528 19.8888 69.1122 21.4981 66.7216C22.6388 65.0184 22.6856 62.8153 21.6075 61.0653L26.5138 56.1591C30.0763 59.3778 34.6544 61.2528 39.4356 61.5028V68.4091C36.6388 69.0184 34.8731 71.7684 35.4669 74.5653C36.0763 77.3622 38.8263 79.1278 41.6231 78.5341C44.42 77.9247 46.1856 75.1747 45.5919 72.3778C45.17 70.3934 43.6075 68.8466 41.6231 68.4091V61.5028C46.4669 61.2528 51.0606 59.3309 54.6387 56.0809L59.5294 60.9716C57.9669 63.3622 58.6231 66.5653 61.0138 68.1434C63.4044 69.7059 66.6075 69.0497 68.1856 66.6591C69.7481 64.2684 69.0919 61.0653 66.7012 59.4872C64.9981 58.3778 62.8106 58.3466 61.0919 59.4403L56.1856 54.5184C59.4044 50.9559 61.2794 46.3778 61.5294 41.5809H68.4825C69.0919 44.3622 71.8575 46.1278 74.6387 45.5184C77.42 44.9091 79.1856 42.1434 78.5762 39.3622C78.045 36.9403 75.9356 35.2528 73.5138 35.2528ZM37.545 7.45594C37.545 5.79969 38.8888 4.47157 40.5294 4.47157C42.1856 4.47157 43.5138 5.81532 43.5138 7.45594C43.5138 9.11219 42.17 10.4403 40.5294 10.4403C38.8888 10.4403 37.545 9.09657 37.545 7.45594ZM40.5294 59.3153C30.1231 59.3153 21.7013 50.8778 21.7013 40.4872C21.7013 30.0966 30.1388 21.6591 40.5294 21.6591C50.92 21.6591 59.3575 30.0966 59.3575 40.4872C59.3575 50.8778 50.92 59.2997 40.5294 59.3153Z" fill="#48CAE4"/>
<path d="M46.0605 48.737C45.2168 49.7839 44.0762 50.5495 42.6699 51.0183V54.1745H38.623V51.1433C36.998 50.7995 35.7793 50.112 34.9668 49.112C34.0918 48.0183 33.6543 46.7058 33.6543 45.1745H38.7793C38.873 46.5964 39.4512 47.3152 40.5449 47.3152C41.6855 47.3152 42.2637 46.7214 42.2637 45.5496C42.2637 44.7527 41.8262 44.0964 40.9512 43.5652C40.623 43.3777 40.1855 43.1589 39.6074 42.9246L38.0605 42.2996C37.4512 42.0339 36.9355 41.7839 36.5137 41.5183C35.9824 41.1902 35.5293 40.8308 35.1699 40.4402C34.2949 39.4714 33.8574 38.2214 33.8574 36.6746C33.8574 33.5183 35.4512 31.4871 38.6543 30.6121V27.5808H42.7012V30.6121C45.5293 31.2683 46.9199 33.1121 46.873 36.1589V36.2996H42.2324C42.1543 35.0339 41.6074 34.4089 40.5762 34.4089C39.498 34.4089 38.9512 34.9714 38.9512 36.0964C38.9512 36.8933 39.4512 37.5652 40.4668 38.1277C40.8105 38.3308 41.2637 38.5183 41.7949 38.7214L43.0137 39.1746C44.3574 39.6902 45.4043 40.4246 46.1699 41.3621C47.0137 42.3777 47.4355 43.5652 47.4355 44.9402C47.3887 46.362 46.9512 47.6277 46.0605 48.737Z" fill="#48CAE4"/>
</svg>
