<svg width="26" height="26" viewBox="0 0 26 26" fill="none" xmlns="http://www.w3.org/2000/svg">
<path d="M12.6643 0.0120239C10.1914 0.0120239 7.77408 0.745324 5.71794 2.11919C3.66179 3.49306 2.05923 5.4458 1.11289 7.73046C0.16655 10.0151 -0.0810549 12.5291 0.401384 14.9545C0.883823 17.3799 2.07464 19.6077 3.82324 21.3563C5.57185 23.1049 7.79971 24.2958 10.2251 24.7782C12.6505 25.2606 15.1645 25.013 17.4491 24.0667C19.7338 23.1203 21.6865 21.5178 23.0604 19.4616C24.4342 17.4055 25.1675 14.9881 25.1675 12.5152C25.1675 9.19917 23.8503 6.01893 21.5054 3.67413C19.1606 1.32932 15.9804 0.0120239 12.6643 0.0120239V0.0120239ZM18.4351 7.52998L15.9793 17.3787C15.9366 17.561 15.8336 17.7235 15.687 17.8399C15.5403 17.9563 15.3586 18.0197 15.1714 18.0198C14.9916 18.0194 14.8169 17.9597 14.6745 17.8499L10.1188 14.3811L11.959 15.7757L10.3112 17.1735C10.2776 17.2031 10.2341 17.2191 10.1894 17.2184C10.1545 17.2178 10.1205 17.2076 10.0911 17.1889C10.0617 17.1703 10.038 17.1438 10.0226 17.1126L8.26578 13.586L5.34837 12.6018C5.27058 12.5728 5.20351 12.5207 5.15616 12.4525C5.10881 12.3843 5.08343 12.3033 5.08343 12.2203C5.08343 12.1373 5.10881 12.0562 5.15616 11.988C5.20351 11.9199 5.27058 11.8678 5.34837 11.8388L17.9029 7.06511C17.9499 7.04657 17.9998 7.03679 18.0503 7.03626C18.11 7.03818 18.1686 7.05321 18.2218 7.08029C18.2751 7.10737 18.3217 7.14583 18.3584 7.19295C18.3951 7.24006 18.421 7.29468 18.4343 7.35293C18.4475 7.41117 18.4478 7.47162 18.4351 7.52998Z" fill="white"/>
</svg>
