<svg width="79" height="79" viewBox="0 0 79 79" fill="none" xmlns="http://www.w3.org/2000/svg">
<path d="M39.3779 0.868164C31.6645 0.868164 24.1242 3.15547 17.7107 7.44085C11.2972 11.7262 6.29846 17.8172 3.34665 24.9435C0.394828 32.0698 -0.377502 39.9114 1.12732 47.4767C2.63214 55.0419 6.34653 61.9911 11.8008 67.4453C17.255 72.8996 24.2042 76.614 31.7694 78.1188C39.3347 79.6236 47.1763 78.8513 54.3026 75.8995C61.4289 72.9476 67.5199 67.9489 71.8053 61.5354C76.0906 55.1219 78.3779 47.5816 78.3779 39.8682C78.3779 29.5247 74.269 19.6049 66.9551 12.291C59.6412 4.97708 49.7214 0.868164 39.3779 0.868164V0.868164ZM63.7479 25.7582C62.6178 27.3181 61.2709 28.7088 59.7479 29.8882C59.6181 29.9692 59.5143 30.0857 59.4487 30.224C59.3831 30.3622 59.3586 30.5164 59.3779 30.6682C59.5388 37.6105 57.1478 44.3707 52.6579 49.6682C48.544 54.6286 42.7497 57.903 36.3779 58.8682C29.6543 60.0412 22.7343 58.6878 16.9479 55.0682C16.8924 55.0088 16.8184 54.9701 16.7379 54.9582C20.2166 55.2313 23.7084 54.6332 26.8979 53.2182C28.3605 52.5816 29.7323 51.7544 30.9779 50.7582C29.514 50.7459 28.0717 50.4041 26.7579 49.7582C24.6127 48.6696 22.9561 46.8131 22.1179 44.5582C21.9079 44.0382 21.9079 44.0382 22.4779 44.0682C23.6721 44.2754 24.8982 44.2001 26.0579 43.8482C25.258 43.6507 24.4854 43.3551 23.7579 42.9682C22.2234 42.1698 20.9275 40.9796 20.0019 39.5183C19.0763 38.057 18.5539 36.3767 18.4879 34.6482C18.4879 34.2182 18.5679 34.1682 18.9679 34.3582C20.1567 34.9568 21.4584 35.2976 22.7879 35.3582C22.1679 34.8082 21.6279 34.3582 21.1479 33.8682C19.8327 32.3922 18.9844 30.5595 18.7103 28.6016C18.4362 26.6438 18.7486 24.6486 19.6079 22.8682C19.8479 22.3882 19.9379 22.3882 20.2679 22.7682C24.5971 27.8856 30.639 31.2549 37.2679 32.2482C37.9679 32.3882 38.7179 32.3882 39.4279 32.5482C39.9179 32.6182 39.9679 32.3882 39.8979 32.0282C39.5454 30.009 39.8375 27.93 40.7329 26.0862C41.6282 24.2423 43.0814 22.7272 44.8862 21.7556C46.6911 20.784 48.756 20.4053 50.7882 20.6732C52.8203 20.9411 54.7166 21.842 56.208 23.2482C56.3498 23.3817 56.524 23.4759 56.7134 23.5215C56.9028 23.5671 57.1009 23.5625 57.2879 23.5082C59.0951 23.1033 60.8312 22.4291 62.438 21.5082C62.5939 21.4565 62.7347 21.3672 62.8479 21.2482C62.1764 23.4835 60.7159 25.3989 58.7379 26.6382C60.5414 26.4187 62.3072 25.9579 63.9879 25.2682C64.028 25.4282 63.8479 25.5682 63.7479 25.7582Z" fill="#48CAE4"/>
</svg>
