<svg width="26" height="26" viewBox="0 0 26 26" fill="none" xmlns="http://www.w3.org/2000/svg">
<path d="M13.1819 0.0120239C10.709 0.0120239 8.29166 0.745324 6.23551 2.11919C4.17937 3.49306 2.5768 5.4458 1.63047 7.73046C0.684128 10.0151 0.436523 12.5291 0.918962 14.9545C1.4014 17.3799 2.59222 19.6077 4.34082 21.3563C6.08943 23.1049 8.31728 24.2958 10.7427 24.7782C13.1681 25.2606 15.682 25.013 17.9667 24.0667C20.2514 23.1203 22.2041 21.5178 23.578 19.4616C24.9518 17.4055 25.6851 14.9881 25.6851 12.5152C25.6851 9.19917 24.3678 6.01893 22.023 3.67413C19.6782 1.32932 16.498 0.0120239 13.1819 0.0120239V0.0120239ZM20.9948 7.99163C20.6325 8.49173 20.2007 8.93758 19.7124 9.31569C19.6708 9.34166 19.6375 9.37903 19.6165 9.42335C19.5955 9.46767 19.5876 9.51709 19.5938 9.56576C19.6454 11.7914 18.8788 13.9587 17.4394 15.6571C16.1205 17.2473 14.2629 18.2971 12.2201 18.6065C10.0646 18.9826 7.84605 18.5487 5.99098 17.3883C5.97316 17.3693 5.94943 17.3568 5.92365 17.353C7.03888 17.4406 8.15835 17.2488 9.1809 16.7952C9.64977 16.5911 10.0896 16.3259 10.4889 16.0065C10.0196 16.0026 9.5572 15.893 9.13601 15.6859C8.44825 15.3369 7.91715 14.7417 7.64845 14.0188C7.58113 13.8521 7.58113 13.8521 7.76387 13.8617C8.1467 13.9282 8.53978 13.904 8.9116 13.7912C8.65512 13.7279 8.40745 13.6331 8.17423 13.5091C7.68226 13.2531 7.2668 12.8715 6.97005 12.4031C6.67331 11.9346 6.50585 11.3959 6.48469 10.8417C6.48469 10.7039 6.51034 10.6878 6.63858 10.7488C7.01967 10.9407 7.43701 11.0499 7.86325 11.0693C7.66448 10.893 7.49136 10.7488 7.33748 10.5917C6.9158 10.1185 6.64385 9.53092 6.55597 8.90324C6.4681 8.27555 6.56824 7.6359 6.84376 7.06511C6.9207 6.91123 6.94955 6.91123 7.05535 7.03305C8.44326 8.67369 10.3802 9.75385 12.5055 10.0723C12.7299 10.1172 12.9703 10.1172 13.198 10.1685C13.355 10.1909 13.3711 10.1172 13.3486 10.0018C13.2356 9.35442 13.3293 8.68792 13.6163 8.09679C13.9034 7.50566 14.3692 7.01991 14.9478 6.70842C15.5265 6.39694 16.1885 6.27553 16.84 6.36142C17.4915 6.44731 18.0994 6.73614 18.5775 7.18694C18.623 7.22975 18.6789 7.25995 18.7396 7.27457C18.8003 7.28919 18.8638 7.28771 18.9238 7.2703C19.5032 7.1405 20.0597 6.92436 20.5748 6.62911C20.6248 6.61254 20.67 6.58391 20.7063 6.54575C20.491 7.2624 20.0228 7.87647 19.3886 8.27376C19.9668 8.2034 20.5329 8.05568 21.0718 7.83454C21.0846 7.88584 21.0269 7.93072 20.9948 7.99163Z" fill="white"/>
</svg>
