<svg width="70" height="81" viewBox="0 0 70 81" fill="none" xmlns="http://www.w3.org/2000/svg">
<path d="M24.9731 40.9C27.4809 38.3922 29.0692 34.8812 29.0692 30.9523C29.0692 29.5312 28.6513 27.9429 27.9825 26.271C27.2301 24.5155 26.227 22.76 25.0567 20.9209C25.0567 20.8373 24.9731 20.8373 24.9731 20.7537C22.5488 17.0756 19.3723 13.481 16.6972 10.388L15.0253 8.46533L13.3534 10.388C8.17058 16.4068 0.981445 24.6827 0.981445 30.9523C0.981445 34.7976 2.56974 38.3086 5.07758 40.9C7.58542 43.4079 11.0964 44.9962 15.0253 44.9962C18.8707 44.9962 22.3817 43.4079 24.9731 40.9Z" fill="#48CAE4"/>
<path d="M62.5067 0.941753L62.0887 0.440186L61.6708 0.941753C58.5778 4.53632 54.3145 9.4684 54.3145 12.9794C54.3145 15.1528 55.1504 17.0755 56.5715 18.4966C57.9926 19.9177 59.9153 20.7537 62.0887 20.7537C64.2622 20.7537 66.1849 19.9177 67.606 18.4966C69.0271 17.0755 69.863 15.1528 69.863 12.9794C69.863 9.4684 65.5997 4.53632 62.5067 0.941753Z" fill="#48CAE4"/>
<path d="M35.6733 12.5613C34.4194 14.066 32.9983 15.6543 31.5772 17.4098L29.4037 19.9176C30.4068 21.5059 31.2428 23.0942 31.9115 24.6825C32.8311 26.856 33.3326 28.9458 33.3326 30.9521C33.3326 35.9678 31.3264 40.5655 27.9826 43.9092C24.6388 47.253 20.1247 49.2593 15.0254 49.2593C13.8551 49.2593 12.7684 49.1757 11.6817 48.9249C11.2637 48.8413 10.9293 48.7577 10.5113 48.6741C10.3441 49.3429 10.177 50.0116 10.0098 50.6804C9.75899 51.9343 9.5918 53.1046 9.5918 54.3586C9.5918 61.5477 12.5176 68.0681 17.1989 72.833C21.9638 77.5978 28.4842 80.4401 35.6733 80.4401C42.8624 80.4401 49.3828 77.5143 54.1477 72.833C58.9126 68.1517 61.7548 61.5477 61.7548 54.3586C61.7548 42.9061 48.9648 28.1935 39.7694 17.4934C38.3483 15.6543 37.0108 14.066 35.6733 12.5613Z" fill="#48CAE4"/>
</svg>
