<svg width="26" height="26" viewBox="0 0 26 26" fill="none" xmlns="http://www.w3.org/2000/svg">
<path d="M13.4407 0.0120239C10.9678 0.0120239 8.55044 0.745324 6.4943 2.11919C4.43816 3.49306 2.83559 5.4458 1.88926 7.73046C0.942917 10.0151 0.695312 12.5291 1.17775 14.9545C1.66019 17.3799 2.851 19.6077 4.59961 21.3563C6.34821 23.1049 8.57607 24.2958 11.0015 24.7782C13.4268 25.2606 15.9408 25.013 18.2255 24.0667C20.5101 23.1203 22.4629 21.5178 23.8367 19.4616C25.2106 17.4055 25.9439 14.9881 25.9439 12.5152C25.9439 9.19917 24.6266 6.01893 22.2818 3.67413C19.937 1.32932 16.7568 0.0120239 13.4407 0.0120239V0.0120239ZM13.4407 5.49741C14.7231 5.49741 16.1177 8.11987 16.2459 11.951H10.6323C10.7605 8.11987 12.1583 5.49741 13.4407 5.49741ZM11.7191 5.14154C10.4592 6.34057 9.60319 8.86045 9.51022 11.9574H5.88429C6.00499 10.3483 6.63593 8.8196 7.68532 7.59377C8.73471 6.36794 10.1478 5.50888 11.7191 5.14154ZM5.88429 13.0731H9.51022C9.60319 16.1668 10.472 18.6899 11.7191 19.8889C10.1478 19.5216 8.73471 18.6625 7.68532 17.4367C6.63593 16.2109 6.00499 14.6822 5.88429 13.0731ZM13.4407 19.5266C12.1583 19.5266 10.7637 16.9042 10.6355 13.0731H16.2459C16.1145 16.9042 14.7231 19.5266 13.4407 19.5266ZM15.1559 19.8889C16.4158 18.6899 17.2718 16.1668 17.3648 13.0731H20.9907C20.87 14.6822 20.2391 16.2109 19.1897 17.4367C18.1403 18.6625 16.7272 19.5216 15.1559 19.8889ZM17.3648 11.951C17.2718 8.85404 16.403 6.33416 15.1559 5.13513C16.7272 5.50247 18.1403 6.36153 19.1897 7.58736C20.2391 8.81319 20.87 10.3418 20.9907 11.951H17.3648Z" fill="white"/>
</svg>
