<svg width="81" height="81" viewBox="0 0 81 81" fill="none" xmlns="http://www.w3.org/2000/svg">
<path d="M73.7127 18.3451L72.5159 18.7245L66.142 19.2923L64.3417 22.1673L63.0353 21.7522L57.9628 17.1788L57.2268 14.8004L56.2413 12.2641L53.0532 9.40439L49.292 8.66846L49.2054 10.3899L52.8902 13.9855L54.6931 16.1093L52.6661 17.1686L51.016 16.6822L48.5434 15.6509L48.6274 13.657L45.3832 12.3226L44.306 17.0107L41.0364 17.7517L41.3598 20.367L45.62 21.1869L46.3559 17.0082L49.8726 17.5276L51.5075 18.4851H54.1303L55.9256 22.0807L60.6849 26.9088L60.3361 28.7856L56.4985 28.2967L49.8675 31.6453L45.0929 37.3723L44.4715 39.9086H42.7578L39.5645 38.4367L36.4629 39.9086L37.2345 43.1808L38.5841 41.6249L40.9574 41.5511L40.7919 44.4897L42.7578 45.0652L44.7211 47.2704L47.9271 46.369L51.5889 46.947L55.8415 48.0904L57.9653 48.34L61.566 52.427L68.5154 56.5141L64.0208 65.1008L59.2767 67.3061L57.4764 72.2131L50.6111 76.7968L49.8803 79.44C67.4305 75.2129 80.4863 59.4477 80.4863 40.5987C80.4812 32.3659 77.9857 24.7036 73.7127 18.3451Z" fill="#48CAE4"/>
<path d="M45.0903 61.5052L42.1772 56.1041L44.8509 50.5325L42.1772 49.7329L39.1749 46.7178L32.5235 45.2256L30.3157 40.6063V43.3489H29.3429L23.6108 35.577V29.193L19.4091 22.3608L12.7374 23.55H8.24285L5.98158 22.068L8.86673 19.7812L5.98922 20.4459C2.52092 26.369 0.499023 33.2419 0.499023 40.6038C0.499023 62.6893 18.4033 80.6012 40.4914 80.6012C42.1924 80.6012 43.8604 80.451 45.5105 80.2523L45.0929 75.4064C45.0929 75.4064 46.9289 68.2101 46.9289 67.9656C46.9263 67.7186 45.0903 61.5052 45.0903 61.5052Z" fill="#48CAE4"/>
<path d="M15.3598 13.4992L22.4645 12.5086L25.7392 10.7134L29.424 11.7752L35.3114 11.4493L37.3282 8.27893L40.2694 8.76276L47.4123 8.09304L49.3807 5.92345L52.1563 4.06961L56.083 4.6604L57.5141 4.44395C52.3422 2.00952 46.5872 0.601318 40.4884 0.601318C28.0743 0.601318 16.9743 6.25958 9.64551 15.1442H9.66588L15.3598 13.4992ZM42.1792 4.57891L46.2638 2.33037L48.8867 3.84553L45.0899 6.73577L41.4637 7.09992L39.8314 6.04058L42.1792 4.57891ZM30.081 4.9074L31.8839 5.65861L34.2444 4.9074L35.5304 7.13557L30.081 8.56669L27.4606 7.03371C27.4581 7.03371 30.0224 5.38359 30.081 4.9074Z" fill="#48CAE4"/>
</svg>
